<?xml version="1.0" encoding="UTF-8" standalone="no"?>
<!-- Created with Inkscape (http://www.inkscape.org/) -->

<svg
   xmlns:dc="http://purl.org/dc/elements/1.1/"
   xmlns:cc="http://creativecommons.org/ns#"
   xmlns:rdf="http://www.w3.org/1999/02/22-rdf-syntax-ns#"
   xmlns:svg="http://www.w3.org/2000/svg"
   xmlns="http://www.w3.org/2000/svg"
   xmlns:sodipodi="http://sodipodi.sourceforge.net/DTD/sodipodi-0.dtd"
   xmlns:inkscape="http://www.inkscape.org/namespaces/inkscape"
   width="8.5in"
   height="11in"
   viewBox="0 0 215.9 279.4"
   version="1.1"
   id="svg977"
   inkscape:version="0.92.3 (2405546, 2018-03-11)"
   sodipodi:docname="page.svg">
  <defs
     id="defs971" />
  <sodipodi:namedview
     id="base"
     pagecolor="#ffffff"
     bordercolor="#666666"
     borderopacity="1.0"
     inkscape:pageopacity="0.0"
     inkscape:pageshadow="2"
     inkscape:zoom="0.70710678"
     inkscape:cx="330.59463"
     inkscape:cy="490.55349"
     inkscape:document-units="in"
     inkscape:current-layer="layer1"
     showgrid="false"
     inkscape:window-width="1873"
     inkscape:window-height="1053"
     inkscape:window-x="47"
     inkscape:window-y="27"
     inkscape:window-maximized="1"
     units="in"
     inkscape:measure-start="792.212,949.291"
     inkscape:measure-end="816.203,948.786" />
  <metadata
     id="metadata974">
    <rdf:RDF>
      <cc:Work
         rdf:about="">
        <dc:format>image/svg+xml</dc:format>
        <dc:type
           rdf:resource="http://purl.org/dc/dcmitype/StillImage" />
        <dc:title></dc:title>
      </cc:Work>
    </rdf:RDF>
  </metadata>
  <g
     inkscape:label="Layer 1"
     inkscape:groupmode="layer"
     id="layer1"
     transform="translate(0,-17.6)">
    <rect
       style="fill:#000000;fill-opacity:1;stroke:none;stroke-width:0.13462585;stroke-miterlimit:4;stroke-dasharray:none;stroke-opacity:1"
       id="rect998"
       width="3.175"
       height="260.35001"
       x="6.3499999"
       y="30.300013" />
    <rect
       style="fill:#000000;fill-opacity:1;stroke:none;stroke-width:0.13462584;stroke-miterlimit:4;stroke-dasharray:none;stroke-opacity:1"
       id="rect998-0"
       width="3.175"
       height="260.35001"
       x="206.375"
       y="30.299999" />
    <rect
       style="fill:#000000;fill-opacity:1;stroke:none;stroke-width:0.13627592;stroke-miterlimit:4;stroke-dasharray:none;stroke-opacity:1"
       id="rect1015"
       width="203.2"
       height="3.175"
       x="6.3499999"
       y="287.47501" />
    <rect
       style="fill:#000000;fill-opacity:1;stroke:none;stroke-width:0.13627592;stroke-miterlimit:4;stroke-dasharray:none;stroke-opacity:1"
       id="rect1015-3"
       width="203.2"
       height="3.175"
       x="6.3499999"
       y="30.299999" />
    <rect
       style="fill:#ffffff;fill-opacity:1;stroke:none;stroke-width:2.62942481;stroke-miterlimit:4;stroke-dasharray:none;stroke-opacity:1"
       id="rect17163"
       width="95.657326"
       height="32.016998"
       x="110.71768"
       y="255.45801" />
    <path
       style="fill:#000000;fill-opacity:1;stroke:none;stroke-width:0.56918412;stroke-miterlimit:4;stroke-dasharray:none;stroke-opacity:1"
       id="path3035"
       sodipodi:type="arc"
       sodipodi:cx="116.4165"
       sodipodi:cy="261.01724"
       sodipodi:rx="8.4665003"
       sodipodi:ry="8.4671507"
       sodipodi:start="3.1415927"
       sodipodi:end="4.712389"
       d="m 107.95,261.01724 a 8.4665003,8.4671507 0 0 1 8.4665,-8.46715 l 0,8.46715 z" />
    <g
       id="g1649"
       transform="matrix(0.33072917,0,0,0.33074803,112.44825,278.21615)">
      <g
         id="Bounding_Boxes">
        <g
           display="none"
           id="ui_x5F_spec_x5F_header_copy_3"
           style="display:none" />
        <path
           id="path1582"
           d="M 0,0 H 24 V 24 H 0 Z"
           inkscape:connector-curvature="0"
           style="fill:none" />
      </g>
      <g
         display="none"
         id="Rounded"
         style="display:none">
        <g
           id="ui_x5F_spec_x5F_header_copy_5" />
        <path
           id="path1586"
           d="M 14.59,2.59 C 14.21,2.21 13.7,2 13.17,2 H 6 C 4.9,2 4,2.9 4,4 v 16 c 0,1.1 0.89,2 1.99,2 H 18 c 1.1,0 2,-0.9 2,-2 V 8.83 C 20,8.3 19.79,7.79 19.41,7.42 Z M 15,16 h -2 v 2 c 0,0.55 -0.45,1 -1,1 v 0 c -0.55,0 -1,-0.45 -1,-1 V 16 H 9 C 8.45,16 8,15.55 8,15 v 0 c 0,-0.55 0.45,-1 1,-1 h 2 v -2 c 0,-0.55 0.45,-1 1,-1 v 0 c 0.55,0 1,0.45 1,1 v 2 h 2 c 0.55,0 1,0.45 1,1 v 0 c 0,0.55 -0.45,1 -1,1 z M 13,8 V 3.5 L 18.5,9 H 14 C 13.45,9 13,8.55 13,8 Z"
           display="inline"
           inkscape:connector-curvature="0"
           style="display:inline" />
      </g>
      <g
         display="none"
         id="Sharp"
         style="display:none">
        <g
           id="ui_x5F_spec_x5F_header_copy_4" />
        <path
           id="path1590"
           d="M 14,2 H 4 V 22 H 20 V 8 Z m 2,14 h -3 v 3 H 11 V 16 H 8 v -2 h 3 v -3 h 2 v 3 h 3 z M 13,9 V 3.5 L 18.5,9 Z"
           display="inline"
           inkscape:connector-curvature="0"
           style="display:inline" />
      </g>
      <g
         id="Outline"
         style="fill:#e5e5e5;fill-opacity:1;stroke:none;stroke-opacity:1">
        <g
           display="none"
           id="ui_x5F_spec_x5F_header"
           style="display:none;fill:#e5e5e5;fill-opacity:1;stroke:none;stroke-opacity:1" />
        <g
           id="g1598"
           style="fill:#e5e5e5;fill-opacity:1;stroke:none;stroke-opacity:1">
          <polygon
             id="polygon1594"
             points="11,14 8,14 8,16 11,16 11,19 13,19 13,16 16,16 16,14 13,14 13,11 11,11 "
             style="fill:#e5e5e5;fill-opacity:1;stroke:none;stroke-opacity:1" />
          <path
             id="path1596"
             d="M 14,2 H 6 C 4.9,2 4,2.9 4,4 v 16 c 0,1.1 0.89,2 1.99,2 H 18 c 1.1,0 2,-0.9 2,-2 V 8 Z m 4,18 H 6 V 4 h 7 v 5 h 5 z"
             inkscape:connector-curvature="0"
             style="fill:#e5e5e5;fill-opacity:1;stroke:none;stroke-opacity:1" />
        </g>
      </g>
      <g
         display="none"
         id="Duotone"
         style="display:none">
        <g
           id="ui_x5F_spec_x5F_header_copy_2" />
        <g
           id="g1610"
           display="inline"
           style="display:inline">
          <path
             id="path1602"
             d="M 13,4 H 6 V 20 H 18 V 9 h -5 z m 3,10 v 2 h -3 v 3 H 11 V 16 H 8 v -2 h 3 v -3 h 2 v 3 z"
             inkscape:connector-curvature="0"
             style="opacity:0.3" />
          <g
             id="g1608">
            <polygon
               id="polygon1604"
               points="11,14 8,14 8,16 11,16 11,19 13,19 13,16 16,16 16,14 13,14 13,11 11,11 " />
            <path
               id="path1606"
               d="M 14,2 H 6 C 4.9,2 4,2.9 4,4 v 16 c 0,1.1 0.89,2 1.99,2 H 18 c 1.1,0 2,-0.9 2,-2 V 8 Z m 4,18 H 6 V 4 h 7 v 5 h 5 z"
               inkscape:connector-curvature="0" />
          </g>
        </g>
      </g>
      <g
         display="none"
         id="Material"
         style="display:none">
        <g
           id="ui_x5F_spec_x5F_header_copy" />
        <path
           id="path1614"
           d="M 14,2 H 6 C 4.9,2 4,2.9 4,4 v 16 c 0,1.1 0.89,2 1.99,2 H 18 c 1.1,0 2,-0.9 2,-2 V 8 Z m 2,14 h -3 v 3 H 11 V 16 H 8 v -2 h 3 v -3 h 2 v 3 h 3 z M 13,9 V 3.5 L 18.5,9 Z"
           display="inline"
           inkscape:connector-curvature="0"
           style="display:inline" />
      </g>
    </g>
    <g
       id="g1819"
       transform="matrix(0,-0.33074803,0.33072917,0,112.44825,275.57014)">
      <g
         id="Bounding_Boxes-6">
        <g
           id="ui_x5F_spec_x5F_header_copy_2-7" />
        <path
           id="path1798"
           d="M 0,0 H 24 V 24 H 0 Z"
           inkscape:connector-curvature="0"
           style="fill:none" />
      </g>
      <g
         id="Outline-5"
         style="fill:#e5e5e5;fill-opacity:1">
        <g
           id="ui_x5F_spec_x5F_header-3"
           style="fill:#e5e5e5;fill-opacity:1" />
        <path
           id="path1802"
           d="M 15.55,5.55 11,1 V 4.07 C 7.06,4.56 4,7.92 4,12 c 0,4.08 3.05,7.44 7,7.93 V 17.91 C 8.16,17.43 6,14.97 6,12 6,9.03 8.16,6.57 11,6.09 V 10 Z M 19.93,11 C 19.76,9.61 19.21,8.27 18.31,7.11 l -1.42,1.42 c 0.54,0.75 0.88,1.6 1.02,2.47 z M 13,17.9 v 2.02 c 1.39,-0.17 2.74,-0.71 3.9,-1.61 L 15.46,16.87 C 14.71,17.41 13.87,17.76 13,17.9 Z m 3.89,-2.42 1.42,1.41 c 0.9,-1.16 1.45,-2.5 1.62,-3.89 h -2.02 c -0.14,0.87 -0.48,1.72 -1.02,2.48 z"
           inkscape:connector-curvature="0"
           style="fill:#e5e5e5;fill-opacity:1" />
      </g>
    </g>
    <ellipse
       style="fill:#ffffff;fill-opacity:1;stroke:none;stroke-width:0.2534726;stroke-miterlimit:4;stroke-dasharray:none;stroke-opacity:1"
       id="path3033"
       cx="116.41699"
       cy="261.01724"
       rx="5.291667"
       ry="5.2919688" />
    <g
       id="g1897"
       transform="matrix(0,-0.33074803,0.33072917,0,112.44825,264.9862)">
      <g
         id="Bounding_Boxes-5">
        <g
           id="ui_x5F_spec_x5F_header_copy_2-6" />
        <path
           id="path1876"
           d="M 0,0 H 24 V 24 H 0 Z"
           inkscape:connector-curvature="0"
           style="fill:none" />
      </g>
      <g
         id="Outline-2"
         style="fill:#d9d9d9;fill-opacity:1">
        <g
           id="ui_x5F_spec_x5F_header-9"
           style="fill:#d9d9d9;fill-opacity:1" />
        <path
           id="path1880"
           d="M 7.11,8.53 5.7,7.11 C 4.8,8.27 4.24,9.61 4.07,11 H 6.09 C 6.23,10.13 6.58,9.28 7.11,8.53 Z M 6.09,13 H 4.07 c 0.17,1.39 0.72,2.73 1.62,3.89 L 7.1,15.47 C 6.58,14.72 6.23,13.88 6.09,13 Z m 1.01,5.32 c 1.16,0.9 2.51,1.44 3.9,1.61 V 17.9 C 10.13,17.75 9.29,17.41 8.54,16.87 Z M 13,4.07 V 1 L 8.45,5.55 13,10 V 6.09 c 2.84,0.48 5,2.94 5,5.91 0,2.97 -2.16,5.43 -5,5.91 v 2.02 C 16.95,19.44 20,16.08 20,12 20,7.92 16.95,4.56 13,4.07 Z"
           inkscape:connector-curvature="0"
           style="fill:#e5e5e5;fill-opacity:1" />
      </g>
    </g>
    <rect
       style="fill:#000000;fill-opacity:1;stroke:none;stroke-width:0.86336195;stroke-miterlimit:4;stroke-dasharray:none;stroke-opacity:1"
       id="rect902"
       width="91.554298"
       height="3.1751812"
       x="116.40855"
       y="252.54982" />
    <g
       id="g1516"
       transform="matrix(0.33072917,0,0,0.33074803,144.19823,257.04825)">
      <g
         id="Bounding_Boxes-7">
        <g
           id="ui_x5F_spec_x5F_header_copy_3-0" />
        <path
           id="path1495"
           d="M 0,0 H 24 V 24 H 0 Z"
           inkscape:connector-curvature="0"
           style="fill:none" />
      </g>
      <g
         id="Outline-9"
         style="fill:#e5e5e5;fill-opacity:1">
        <g
           id="ui_x5F_spec_x5F_header-36"
           style="fill:#e5e5e5;fill-opacity:1" />
        <path
           id="path1499"
           d="m 3.5,18.49 6,-6.01 4,4 8.5,-9.56 -1.41,-1.41 -7.09,7.97 -4,-4 -7.5,7.51 z"
           inkscape:connector-curvature="0"
           style="fill:#e5e5e5;fill-opacity:1" />
      </g>
    </g>
    <g
       id="g1623"
       transform="matrix(0.33072917,0,0,0.33074803,165.39233,257.04825)">
      <g
         display="none"
         id="Header_x2F_BG"
         style="display:none">
        <rect
           id="rect1518"
           height="520"
           width="520"
           display="inline"
           y="-314"
           x="-226"
           style="display:inline;fill:#f1f1f2" />
      </g>
      <g
         id="Bounding_Boxes-0">
        <g
           id="ui_x5F_spec_x5F_header_copy_3-6" />
        <path
           id="path1522"
           d="M 0,0 H 24 V 24 H 0 Z"
           inkscape:connector-curvature="0"
           style="fill:none" />
      </g>
      <g
         display="none"
         id="Rounded-2"
         style="display:none">
        <g
           display="inline"
           id="ui_x5F_spec_x5F_header_copy_5-6"
           style="display:inline" />
        <path
           id="path1526"
           d="M 11,3.18 V 20.82 C 11,21.46 10.41,21.94 9.79,21.8 5.32,20.8 2,16.79 2,12 2,7.21 5.32,3.2 9.79,2.2 10.41,2.06 11,2.54 11,3.18 Z m 2.03,0 v 6.81 c 0,0.55 0.45,1 1,1 h 6.79 c 0.64,0 1.12,-0.59 0.98,-1.22 C 20.95,6.01 18,3.05 14.25,2.2 13.62,2.06 13.03,2.54 13.03,3.18 Z m 0,10.83 v 6.81 c 0,0.64 0.59,1.12 1.22,0.98 3.76,-0.85 6.71,-3.82 7.56,-7.58 C 21.95,13.6 21.46,13 20.83,13 h -6.79 c -0.56,0.01 -1.01,0.46 -1.01,1.01 z"
           display="inline"
           inkscape:connector-curvature="0"
           style="display:inline" />
      </g>
      <g
         display="none"
         id="Sharp-1"
         style="display:none">
        <g
           display="inline"
           id="ui_x5F_spec_x5F_header_copy_4-8"
           style="display:inline" />
        <g
           id="g1536"
           display="inline"
           style="display:inline">
          <path
             id="path1530"
             d="m 13,9.18 c 0.85,0.3 1.51,0.97 1.82,1.82 h 7.13 C 21.48,6.28 17.72,2.52 13,2.05 Z"
             inkscape:connector-curvature="0" />
          <path
             id="path1532"
             d="M 11,14.82 C 9.84,14.4 9,13.3 9,12 9,10.7 9.84,9.6 11,9.18 V 2.05 C 5.95,2.55 2,6.81 2,12 c 0,5.19 3.95,9.45 9,9.95 z"
             inkscape:connector-curvature="0" />
          <path
             id="path1534"
             d="m 14.82,13 c -0.3,0.85 -0.97,1.51 -1.82,1.82 v 7.13 c 4.72,-0.47 8.48,-4.23 8.95,-8.95 z"
             inkscape:connector-curvature="0" />
        </g>
      </g>
      <g
         id="Outline-7"
         style="fill:#e5e5e5;fill-opacity:1">
        <g
           id="ui_x5F_spec_x5F_header-92"
           style="fill:#e5e5e5;fill-opacity:1" />
        <g
           id="g1546"
           style="fill:#e5e5e5;fill-opacity:1">
          <path
             id="path1540"
             d="m 14.82,11 h 7.13 C 21.48,6.28 17.72,2.52 13,2.05 v 7.13 c 0.85,0.31 1.51,0.97 1.82,1.82 z M 15,4.58 C 17,5.4 18.6,7 19.42,9 H 15.99 C 15.71,8.63 15.37,8.29 15,8.01 Z"
             inkscape:connector-curvature="0"
             style="fill:#e5e5e5;fill-opacity:1" />
          <path
             id="path1542"
             d="m 2,12 c 0,5.19 3.95,9.45 9,9.95 V 14.82 C 9.84,14.4 9,13.3 9,12 9,10.7 9.84,9.6 11,9.18 V 2.05 C 5.95,2.55 2,6.81 2,12 Z M 9,4.58 V 8.02 C 7.77,8.94 7,10.41 7,12 c 0,1.59 0.77,3.06 2,3.99 v 3.44 C 6.04,18.24 4,15.35 4,12 4,8.65 6.04,5.76 9,4.58 Z"
             inkscape:connector-curvature="0"
             style="fill:#e5e5e5;fill-opacity:1" />
          <path
             id="path1544"
             d="m 13,14.82 v 7.13 c 4.72,-0.47 8.48,-4.23 8.95,-8.95 h -7.13 c -0.31,0.85 -0.97,1.51 -1.82,1.82 z m 2,1.17 c 0.37,-0.28 0.71,-0.61 0.99,-0.99 h 3.43 C 18.6,17 17,18.6 15,19.42 Z"
             inkscape:connector-curvature="0"
             style="fill:#e5e5e5;fill-opacity:1" />
        </g>
      </g>
      <g
         display="none"
         id="Duotone-0"
         style="display:none">
        <g
           display="inline"
           id="ui_x5F_spec_x5F_header_copy_2-2"
           style="display:inline" />
        <g
           id="g1556"
           display="inline"
           style="display:inline">
          <path
             id="path1550"
             d="m 15.99,9 h 3.43 C 18.6,7 17,5.4 15,4.58 v 3.43 c 0.37,0.28 0.71,0.62 0.99,0.99 z"
             inkscape:connector-curvature="0"
             style="opacity:0.3" />
          <path
             id="path1552"
             d="m 4,12 c 0,3.35 2.04,6.24 5,7.42 V 15.98 C 7.77,15.05 7,13.58 7,11.99 7,10.4 7.77,8.93 9,8 V 4.58 C 6.04,5.76 4,8.65 4,12 Z"
             inkscape:connector-curvature="0"
             style="opacity:0.3" />
          <path
             id="path1554"
             d="m 15,15.99 v 3.43 C 17,18.6 18.6,17 19.42,15 h -3.43 c -0.28,0.37 -0.62,0.71 -0.99,0.99 z"
             inkscape:connector-curvature="0"
             style="opacity:0.3" />
        </g>
        <g
           id="g1564"
           display="inline"
           style="display:inline">
          <path
             id="path1558"
             d="m 14.82,11 h 7.13 C 21.48,6.28 17.72,2.52 13,2.05 v 7.13 c 0.85,0.31 1.51,0.97 1.82,1.82 z M 15,4.58 C 17,5.4 18.6,7 19.42,9 H 15.99 C 15.71,8.63 15.37,8.29 15,8.01 Z"
             inkscape:connector-curvature="0" />
          <path
             id="path1560"
             d="m 2,12 c 0,5.19 3.95,9.45 9,9.95 V 14.82 C 9.84,14.4 9,13.3 9,12 9,10.7 9.84,9.6 11,9.18 V 2.05 C 5.95,2.55 2,6.81 2,12 Z M 9,4.58 V 8.02 C 7.77,8.94 7,10.41 7,12 c 0,1.59 0.77,3.06 2,3.99 v 3.44 C 6.04,18.24 4,15.35 4,12 4,8.65 6.04,5.76 9,4.58 Z"
             inkscape:connector-curvature="0" />
          <path
             id="path1562"
             d="m 13,14.82 v 7.13 c 4.72,-0.47 8.48,-4.23 8.95,-8.95 h -7.13 c -0.31,0.85 -0.97,1.51 -1.82,1.82 z m 2,1.17 c 0.37,-0.28 0.71,-0.61 0.99,-0.99 h 3.43 C 18.6,17 17,18.6 15,19.42 Z"
             inkscape:connector-curvature="0" />
        </g>
      </g>
      <g
         display="none"
         id="Fill"
         style="display:none">
        <g
           display="inline"
           id="ui_x5F_spec_x5F_header_copy-3"
           style="display:inline" />
        <g
           id="g1574"
           display="inline"
           style="display:inline">
          <path
             id="path1568"
             d="m 13,9.18 c 0.85,0.3 1.51,0.97 1.82,1.82 h 7.13 C 21.48,6.28 17.72,2.52 13,2.05 Z"
             inkscape:connector-curvature="0" />
          <path
             id="path1570"
             d="M 11,14.82 C 9.84,14.4 9,13.3 9,12 9,10.7 9.84,9.6 11,9.18 V 2.05 C 5.95,2.55 2,6.81 2,12 c 0,5.19 3.95,9.45 9,9.95 z"
             inkscape:connector-curvature="0" />
          <path
             id="path1572"
             d="m 14.82,13 c -0.3,0.85 -0.97,1.51 -1.82,1.82 v 7.13 c 4.72,-0.47 8.48,-4.23 8.95,-8.95 z"
             inkscape:connector-curvature="0" />
        </g>
      </g>
      <g
         display="none"
         id="nyt_x5F_exporter_x5F_info"
         style="display:none" />
    </g>
    <g
       id="g1706"
       transform="matrix(0.33072917,0,0,0.33074803,154.78156,267.30144)">
      <g
         display="none"
         id="Header_x2F_BG-7"
         style="display:none">
        <rect
           id="rect1625"
           height="520"
           width="520"
           display="inline"
           y="-182"
           x="-182"
           style="display:inline;fill:#f1f1f2" />
      </g>
      <g
         id="Bounding_Boxes-59">
        <g
           id="ui_x5F_spec_x5F_header_copy_3-2" />
        <path
           id="path1629"
           d="M 0,0 H 24 V 24 H 0 Z"
           inkscape:connector-curvature="0"
           style="fill:none" />
      </g>
      <g
         display="none"
         id="Rounded-28"
         style="display:none">
        <g
           display="inline"
           id="ui_x5F_spec_x5F_header_copy_5-9"
           style="display:inline" />
        <path
           id="path1633"
           d="M 19,8 H 17.19 C 16.74,7.22 16.12,6.55 15.37,6.04 L 16.3,5.11 c 0.39,-0.39 0.39,-1.02 0,-1.41 v 0 C 15.91,3.31 15.28,3.31 14.89,3.7 L 13.42,5.17 C 12.96,5.06 12.49,5 12,5 11.51,5 11.04,5.06 10.59,5.17 L 9.11,3.7 C 8.72,3.31 8.09,3.31 7.7,3.7 v 0 C 7.31,4.09 7.31,4.72 7.7,5.11 L 8.62,6.04 C 7.88,6.55 7.26,7.22 6.81,8 H 5 C 4.45,8 4,8.45 4,9 v 0 c 0,0.55 0.45,1 1,1 H 6.09 C 6.04,10.33 6,10.66 6,11 v 1 H 5 c -0.55,0 -1,0.45 -1,1 v 0 c 0,0.55 0.45,1 1,1 h 1 v 1 c 0,0.34 0.04,0.67 0.09,1 H 5 c -0.55,0 -1,0.45 -1,1 v 0 c 0,0.55 0.45,1 1,1 h 1.81 c 1.04,1.79 2.97,3 5.19,3 2.22,0 4.15,-1.21 5.19,-3 H 19 c 0.55,0 1,-0.45 1,-1 v 0 c 0,-0.55 -0.45,-1 -1,-1 H 17.91 C 17.96,15.67 18,15.34 18,15 v -1 h 1 c 0.55,0 1,-0.45 1,-1 v 0 c 0,-0.55 -0.45,-1 -1,-1 h -1 v -1 c 0,-0.34 -0.04,-0.67 -0.09,-1 H 19 c 0.55,0 1,-0.45 1,-1 V 9 C 20,8.45 19.55,8 19,8 Z m -6,8 h -2 c -0.55,0 -1,-0.45 -1,-1 v 0 c 0,-0.55 0.45,-1 1,-1 h 2 c 0.55,0 1,0.45 1,1 v 0 c 0,0.55 -0.45,1 -1,1 z m 0,-4 h -2 c -0.55,0 -1,-0.45 -1,-1 v 0 c 0,-0.55 0.45,-1 1,-1 h 2 c 0.55,0 1,0.45 1,1 v 0 c 0,0.55 -0.45,1 -1,1 z"
           display="inline"
           inkscape:connector-curvature="0"
           style="display:inline" />
      </g>
      <g
         display="none"
         id="Sharp-7"
         style="display:none">
        <g
           display="inline"
           id="ui_x5F_spec_x5F_header_copy_4-3"
           style="display:inline" />
        <path
           id="path1637"
           d="M 20,8 H 17.19 C 16.74,7.22 16.12,6.55 15.37,6.04 L 17,4.41 15.59,3 13.42,5.17 C 12.96,5.06 12.49,5 12,5 11.51,5 11.04,5.06 10.59,5.17 L 8.41,3 7,4.41 8.62,6.04 C 7.88,6.55 7.26,7.22 6.81,8 H 4 v 2 H 6.09 C 6.04,10.33 6,10.66 6,11 v 1 H 4 v 2 h 2 v 1 c 0,0.34 0.04,0.67 0.09,1 H 4 v 2 h 2.81 c 1.04,1.79 2.97,3 5.19,3 2.22,0 4.15,-1.21 5.19,-3 H 20 V 16 H 17.91 C 17.96,15.67 18,15.34 18,15 v -1 h 2 v -2 h -2 v -1 c 0,-0.34 -0.04,-0.67 -0.09,-1 H 20 Z m -6,8 h -4 v -2 h 4 z m 0,-4 h -4 v -2 h 4 z"
           display="inline"
           inkscape:connector-curvature="0"
           style="display:inline" />
      </g>
      <g
         id="Outline-6"
         style="fill:#e5e5e5;fill-opacity:1">
        <g
           id="ui_x5F_spec_x5F_header-1"
           style="fill:#e5e5e5;fill-opacity:1" />
        <g
           id="g1647"
           style="fill:#e5e5e5;fill-opacity:1">
          <path
             id="path1641"
             d="M 20,8 H 17.19 C 16.74,7.22 16.12,6.55 15.37,6.04 L 17,4.41 15.59,3 13.42,5.17 C 12.96,5.06 12.49,5 12,5 11.51,5 11.04,5.06 10.59,5.17 L 8.41,3 7,4.41 8.62,6.04 C 7.88,6.55 7.26,7.22 6.81,8 H 4 v 2 H 6.09 C 6.04,10.33 6,10.66 6,11 v 1 H 4 v 2 h 2 v 1 c 0,0.34 0.04,0.67 0.09,1 H 4 v 2 h 2.81 c 1.04,1.79 2.97,3 5.19,3 2.22,0 4.15,-1.21 5.19,-3 H 20 V 16 H 17.91 C 17.96,15.67 18,15.34 18,15 v -1 h 2 v -2 h -2 v -1 c 0,-0.34 -0.04,-0.67 -0.09,-1 H 20 Z m -4,4 v 2 1 c 0,0.22 -0.03,0.47 -0.07,0.7 L 15.83,16.35 15.46,17 C 14.74,18.24 13.42,19 12,19 10.58,19 9.26,18.23 8.54,17 L 8.17,16.36 8.07,15.71 C 8.03,15.48 8,15.23 8,15 V 14 12 11 C 8,10.77 8.03,10.52 8.07,10.3 L 8.17,9.65 8.54,9 C 8.84,8.48 9.26,8.03 9.75,7.69 L 10.32,7.3 11.06,7.12 C 11.37,7.04 11.69,7 12,7 c 0.32,0 0.63,0.04 0.95,0.12 l 0.68,0.16 0.61,0.42 c 0.5,0.34 0.91,0.78 1.21,1.31 l 0.38,0.65 0.1,0.65 C 15.97,10.53 16,10.78 16,11 Z"
             inkscape:connector-curvature="0"
             style="fill:#e5e5e5;fill-opacity:1" />
          <rect
             id="rect1643"
             height="2"
             width="4"
             y="14"
             x="10"
             style="fill:#e5e5e5;fill-opacity:1" />
          <rect
             id="rect1645"
             height="2"
             width="4"
             y="10"
             x="10"
             style="fill:#e5e5e5;fill-opacity:1" />
        </g>
      </g>
      <g
         display="none"
         id="Duotone-2"
         style="display:none">
        <g
           display="inline"
           id="ui_x5F_spec_x5F_header_copy_2-9"
           style="display:inline" />
        <g
           id="g1661"
           display="inline"
           style="display:inline">
          <path
             id="path1651"
             d="M 15.83,9.65 15.46,9 C 15.16,8.47 14.75,8.04 14.25,7.69 L 13.64,7.27 12.96,7.11 C 12.63,7.04 12.32,7 12,7 11.69,7 11.37,7.04 11.06,7.11 L 10.32,7.29 9.75,7.69 C 9.26,8.03 8.84,8.48 8.54,9 L 8.17,9.65 8.07,10.3 C 8.03,10.53 8,10.78 8,11 v 1 2 1 c 0,0.22 0.03,0.47 0.07,0.7 l 0.1,0.65 0.37,0.65 c 0.72,1.24 2.04,2 3.46,2 1.42,0 2.74,-0.77 3.46,-2 l 0.37,-0.64 0.1,-0.65 C 15.97,15.47 16,15.22 16,15 v -1 -2 -1 c 0,-0.22 -0.03,-0.47 -0.07,-0.7 z M 14,16 h -4 v -2 h 4 z m 0,-4 h -4 v -2 h 4 z"
             inkscape:connector-curvature="0"
             style="opacity:0.3" />
          <g
             id="g1659">
            <path
               id="path1653"
               d="M 20,8 H 17.19 C 16.74,7.22 16.12,6.55 15.37,6.04 L 17,4.41 15.59,3 13.42,5.17 C 12.96,5.06 12.49,5 12,5 11.51,5 11.04,5.06 10.59,5.17 L 8.41,3 7,4.41 8.62,6.04 C 7.88,6.55 7.26,7.22 6.81,8 H 4 v 2 H 6.09 C 6.04,10.33 6,10.66 6,11 v 1 H 4 v 2 h 2 v 1 c 0,0.34 0.04,0.67 0.09,1 H 4 v 2 h 2.81 c 1.04,1.79 2.97,3 5.19,3 2.22,0 4.15,-1.21 5.19,-3 H 20 V 16 H 17.91 C 17.96,15.67 18,15.34 18,15 v -1 h 2 v -2 h -2 v -1 c 0,-0.34 -0.04,-0.67 -0.09,-1 H 20 Z m -4,4 v 2 1 c 0,0.22 -0.03,0.47 -0.07,0.7 L 15.83,16.35 15.46,17 C 14.74,18.24 13.42,19 12,19 10.58,19 9.26,18.23 8.54,17 L 8.17,16.36 8.07,15.71 C 8.03,15.47 8,15.22 8,15 V 14 12 11 C 8,10.78 8.03,10.53 8.07,10.3 L 8.17,9.65 8.54,9 C 8.84,8.48 9.26,8.03 9.75,7.69 L 10.32,7.3 11.06,7.12 C 11.37,7.04 11.69,7 12,7 c 0.32,0 0.63,0.04 0.95,0.12 l 0.68,0.16 0.61,0.42 c 0.5,0.34 0.91,0.78 1.21,1.31 l 0.38,0.65 0.1,0.65 C 15.97,10.53 16,10.78 16,11 Z"
               inkscape:connector-curvature="0" />
            <rect
               id="rect1655"
               height="2"
               width="4"
               y="14"
               x="10" />
            <rect
               id="rect1657"
               height="2"
               width="4"
               y="10"
               x="10" />
          </g>
        </g>
      </g>
      <g
         display="none"
         id="Fill-3"
         style="display:none">
        <g
           display="inline"
           id="ui_x5F_spec_x5F_header_copy-1"
           style="display:inline" />
        <path
           id="path1665"
           d="M 20,8 H 17.19 C 16.74,7.22 16.12,6.55 15.37,6.04 L 17,4.41 15.59,3 13.42,5.17 C 12.96,5.06 12.49,5 12,5 11.51,5 11.04,5.06 10.59,5.17 L 8.41,3 7,4.41 8.62,6.04 C 7.88,6.55 7.26,7.22 6.81,8 H 4 v 2 H 6.09 C 6.04,10.33 6,10.66 6,11 v 1 H 4 v 2 h 2 v 1 c 0,0.34 0.04,0.67 0.09,1 H 4 v 2 h 2.81 c 1.04,1.79 2.97,3 5.19,3 2.22,0 4.15,-1.21 5.19,-3 H 20 V 16 H 17.91 C 17.96,15.67 18,15.34 18,15 v -1 h 2 v -2 h -2 v -1 c 0,-0.34 -0.04,-0.67 -0.09,-1 H 20 Z m -6,8 h -4 v -2 h 4 z m 0,-4 h -4 v -2 h 4 z"
           display="inline"
           inkscape:connector-curvature="0"
           style="display:inline" />
      </g>
      <g
         display="none"
         id="nyt_x5F_exporter_x5F_info-9"
         style="display:none" />
    </g>
    <g
       id="g1730"
       transform="matrix(0.33072917,0,0,0.33074803,165.36489,278.21615)">
      <g
         id="Bounding_Boxes-4">
        <path
           id="path1708"
           d="M 0,0 H 24 V 24 H 0 Z"
           inkscape:connector-curvature="0"
           style="fill:none" />
        <g
           id="ui_x5F_spec_x5F_header_copy_2-78" />
      </g>
      <g
         id="Outline-4"
         style="fill:#e5e5e5;fill-opacity:1">
        <g
           id="ui_x5F_spec_x5F_header-5"
           style="fill:#e5e5e5;fill-opacity:1" />
        <path
           id="path1713"
           d="M 12,2 C 6.48,2 2,6.48 2,12 2,17.52 6.48,22 12,22 17.52,22 22,17.52 22,12 22,6.48 17.52,2 12,2 Z M 4,12 C 4,11.39 4.08,10.79 4.21,10.22 L 8.99,15 v 1 c 0,1.1 0.9,2 2,2 v 1.93 C 7.06,19.43 4,16.07 4,12 Z m 13.89,5.4 c -0.26,-0.81 -1,-1.4 -1.9,-1.4 h -1 v -3 c 0,-0.55 -0.45,-1 -1,-1 h -6 v -2 h 2 c 0.55,0 1,-0.45 1,-1 V 7 h 2 c 1.1,0 2,-0.9 2,-2 V 4.59 C 17.92,5.77 20,8.65 20,12 c 0,2.08 -0.81,3.98 -2.11,5.4 z"
           inkscape:connector-curvature="0"
           style="fill:#e5e5e5;fill-opacity:1" />
      </g>
    </g>
    <g
       id="g1754"
       transform="matrix(0.33072917,0,0,0.33074803,133.61492,257.04825)">
      <g
         id="Bounding_Boxes-03">
        <g
           id="ui_x5F_spec_x5F_header_copy_2-61" />
        <path
           id="path1733"
           d="M 0,0 H 24 V 24 H 0 Z"
           inkscape:connector-curvature="0"
           style="fill:none" />
      </g>
      <g
         id="Outline-0"
         style="fill:#e5e5e5;fill-opacity:1">
        <g
           id="ui_x5F_spec_x5F_header-6"
           style="fill:#e5e5e5;fill-opacity:1" />
        <path
           id="path1737"
           d="m 12,5.9 c 1.16,0 2.1,0.94 2.1,2.1 0,1.16 -0.94,2.1 -2.1,2.1 C 10.84,10.1 9.9,9.16 9.9,8 9.9,6.84 10.84,5.9 12,5.9 m 0,9 c 2.97,0 6.1,1.46 6.1,2.1 v 1.1 H 5.9 V 17 c 0,-0.64 3.13,-2.1 6.1,-2.1 M 12,4 C 9.79,4 8,5.79 8,8 c 0,2.21 1.79,4 4,4 2.21,0 4,-1.79 4,-4 0,-2.21 -1.79,-4 -4,-4 z m 0,9 c -2.67,0 -8,1.34 -8,4 v 3 h 16 v -3 c 0,-2.66 -5.33,-4 -8,-4 z"
           inkscape:connector-curvature="0"
           style="fill:#e5e5e5;fill-opacity:1" />
      </g>
    </g>
    <g
       id="g1784"
       transform="matrix(0.33072917,0,0,0.33074803,123.03158,267.63219)">
      <g
         id="Bounding_Boxes-3">
        <g
           id="ui_x5F_spec_x5F_header_copy_2-20" />
        <path
           id="path1757"
           d="M 0,0 H 24 V 24 H 0 Z"
           inkscape:connector-curvature="0"
           style="fill:none" />
      </g>
      <g
         id="Outline-61"
         style="fill:#e5e5e5;fill-opacity:1">
        <g
           id="ui_x5F_spec_x5F_header-55"
           style="fill:#e5e5e5;fill-opacity:1" />
        <g
           id="g1765"
           style="fill:#e5e5e5;fill-opacity:1">
          <path
             id="path1761"
             d="M 20,6 H 12 L 10,4 H 4 C 2.9,4 2,4.9 2,6 v 12 c 0,1.1 0.9,2 2,2 h 16 c 1.1,0 2,-0.9 2,-2 V 8 C 22,6.9 21.1,6 20,6 Z m 0,12 H 4 V 6 h 5.17 l 2,2 H 20 Z"
             inkscape:connector-curvature="0"
             style="fill:#e5e5e5;fill-opacity:1" />
          <polygon
             id="polygon1763"
             points="12.39,17 15,15.47 17.61,17 16.92,14.04 19.22,12.05 16.19,11.79 15,9 13.81,11.79 10.78,12.05 13.08,14.04 "
             style="fill:#e5e5e5;fill-opacity:1" />
        </g>
      </g>
    </g>
    <g
       id="g1808"
       transform="matrix(0.33072917,0,0,0.33074803,144.19823,267.63219)">
      <g
         id="Bounding_Boxes-47">
        <g
           id="ui_x5F_spec_x5F_header_copy_2-65" />
        <path
           id="path1787"
           d="M 0,0 H 24 V 24 H 0 Z"
           inkscape:connector-curvature="0"
           style="fill:none" />
      </g>
      <g
         id="Outline-69"
         style="fill:#e5e5e5;fill-opacity:1">
        <g
           id="ui_x5F_spec_x5F_header-37"
           style="fill:#e5e5e5;fill-opacity:1" />
        <path
           id="path1791"
           d="M 21,6 H 3 C 1.9,6 1,6.9 1,8 v 8 c 0,1.1 0.9,2 2,2 h 18 c 1.1,0 2,-0.9 2,-2 V 8 C 23,6.9 22.1,6 21,6 Z m 0,10 H 3 V 8 h 2 v 4 H 7 V 8 h 2 v 4 h 2 V 8 h 2 v 4 h 2 V 8 h 2 v 4 h 2 V 8 h 2 z"
           inkscape:connector-curvature="0"
           style="fill:#e5e5e5;fill-opacity:1" />
      </g>
    </g>
    <g
       id="g1865"
       transform="matrix(0.33072917,0,0,0.33074803,154.78156,278.21615)">
      <g
         id="Bounding_Boxes-43">
        <g
           display="none"
           id="ui_x5F_spec_x5F_header_copy_3-07"
           style="display:none" />
        <path
           id="path1844"
           d="M 0,0 H 24 V 24 H 0 Z"
           inkscape:connector-curvature="0"
           style="fill:none" />
      </g>
      <g
         id="Outline-8"
         style="fill:#e5e5e5;fill-opacity:1">
        <g
           display="none"
           id="ui_x5F_spec_x5F_header-68"
           style="display:none;fill:#e5e5e5;fill-opacity:1" />
        <path
           id="path1848"
           d="m 17,16.99 c -1.35,0 -2.2,0.42 -2.95,0.8 -0.65,0.33 -1.18,0.6 -2.05,0.6 -0.9,0 -1.4,-0.25 -2.05,-0.6 C 9.2,17.41 8.38,16.99 7,16.99 c -1.38,0 -2.2,0.42 -2.95,0.8 -0.65,0.33 -1.17,0.6 -2.05,0.6 v 1.95 c 1.35,0 2.2,-0.42 2.95,-0.8 0.65,-0.33 1.17,-0.6 2.05,-0.6 0.88,0 1.4,0.25 2.05,0.6 0.75,0.38 1.57,0.8 2.95,0.8 1.38,0 2.2,-0.42 2.95,-0.8 0.65,-0.33 1.18,-0.6 2.05,-0.6 0.9,0 1.4,0.25 2.05,0.6 0.75,0.38 1.58,0.8 2.95,0.8 v -1.95 c -0.9,0 -1.4,-0.25 -2.05,-0.6 -0.75,-0.38 -1.6,-0.8 -2.95,-0.8 z m 0,-4.45 c -1.35,0 -2.2,0.43 -2.95,0.8 -0.65,0.32 -1.18,0.6 -2.05,0.6 -0.9,0 -1.4,-0.25 -2.05,-0.6 C 9.2,12.96 8.38,12.54 7,12.54 c -1.38,0 -2.2,0.43 -2.95,0.8 -0.65,0.32 -1.17,0.6 -2.05,0.6 v 1.95 c 1.35,0 2.2,-0.43 2.95,-0.8 0.65,-0.35 1.15,-0.6 2.05,-0.6 0.9,0 1.4,0.25 2.05,0.6 0.75,0.38 1.57,0.8 2.95,0.8 1.38,0 2.2,-0.43 2.95,-0.8 0.65,-0.35 1.15,-0.6 2.05,-0.6 0.9,0 1.4,0.25 2.05,0.6 0.75,0.38 1.58,0.8 2.95,0.8 v -1.95 c -0.9,0 -1.4,-0.25 -2.05,-0.6 -0.75,-0.38 -1.6,-0.8 -2.95,-0.8 z M 19.95,4.46 C 19.2,4.08 18.37,3.66 17,3.66 15.63,3.66 14.8,4.08 14.05,4.46 13.4,4.78 12.87,5.06 12,5.06 11.1,5.06 10.6,4.81 9.95,4.46 9.2,4.09 8.38,3.66 7,3.66 5.62,3.66 4.8,4.08 4.05,4.46 3.4,4.79 2.88,5.06 2,5.06 V 6.99 C 3.35,6.99 4.2,6.56 4.95,6.19 5.6,5.86 6.12,5.59 7,5.59 c 0.88,0 1.4,0.25 2.05,0.6 0.75,0.38 1.57,0.8 2.95,0.8 1.38,0 2.2,-0.43 2.95,-0.8 0.65,-0.32 1.18,-0.6 2.05,-0.6 0.9,0 1.4,0.25 2.05,0.6 0.75,0.38 1.58,0.8 2.95,0.8 V 5.04 c -0.9,0 -1.4,-0.25 -2.05,-0.58 z M 17,8.09 c -1.35,0 -2.2,0.43 -2.95,0.8 C 13.4,9.24 12.9,9.49 12,9.49 11.1,9.49 10.6,9.24 9.95,8.89 9.2,8.51 8.38,8.09 7,8.09 5.62,8.09 4.8,8.52 4.05,8.89 3.4,9.24 2.9,9.49 2,9.49 v 1.95 c 1.35,0 2.2,-0.43 2.95,-0.8 0.65,-0.32 1.18,-0.6 2.05,-0.6 0.87,0 1.4,0.25 2.05,0.6 0.75,0.38 1.57,0.8 2.95,0.8 1.38,0 2.2,-0.43 2.95,-0.8 0.65,-0.32 1.18,-0.6 2.05,-0.6 0.9,0 1.4,0.25 2.05,0.6 0.75,0.38 1.58,0.8 2.95,0.8 V 9.49 C 21.1,9.49 20.6,9.24 19.95,8.89 19.2,8.51 18.35,8.09 17,8.09 Z"
           inkscape:connector-curvature="0"
           style="fill:#e5e5e5;fill-opacity:1" />
      </g>
    </g>
    <g
       id="g1888"
       transform="matrix(0.33072917,0,0,0.33074803,123.03158,257.04825)">
      <g
         id="Bounding_Boxes-8">
        <g
           id="ui_x5F_spec_x5F_header_copy_2-4" />
        <path
           id="path1868"
           d="M 0,0 H 24 V 24 H 0 Z"
           inkscape:connector-curvature="0"
           style="fill:none" />
      </g>
      <g
         id="Outline-3"
         style="fill:#e5e5e5;fill-opacity:1">
        <g
           id="ui_x5F_spec_x5F_header-14"
           style="fill:#e5e5e5;fill-opacity:1" />
        <path
           d="M 22,6 C 22,4.9 21.1,4 20,4 H 4 C 2.9,4 2,4.9 2,6 v 12 c 0,1.1 0.9,2 2,2 h 16 c 1.1,0 2,-0.9 2,-2 z M 20,6 12,11 4,6 Z m 0,12 H 4 V 8 l 8,5 8,-5 z"
           id="XMLID_497_"
           inkscape:connector-curvature="0"
           style="fill:#e5e5e5;fill-opacity:1" />
      </g>
    </g>
    <g
       id="g2516"
       transform="matrix(0.33072917,0,0,0.33074803,123.0376,278.21623)">
      <g
         id="Bounding_Boxes-9">
        <g
           display="none"
           id="ui_x5F_spec_x5F_header_copy_3-20"
           style="display:none" />
        <path
           id="path2489"
           d="M 0,0 H 24 V 24 H 0 Z"
           inkscape:connector-curvature="0"
           style="fill:none" />
      </g>
      <g
         id="Outline-68"
         style="fill:#e5e5e5;fill-opacity:1">
        <g
           display="none"
           id="ui_x5F_spec_x5F_header-926"
           style="display:none;fill:#e5e5e5;fill-opacity:1" />
        <g
           id="g2497"
           style="fill:#e5e5e5;fill-opacity:1">
          <path
             id="path2493"
             d="M 3,17.25 V 21 H 6.75 L 17.81,9.94 14.06,6.19 Z M 5.92,19 H 5 v -0.92 l 9.06,-9.06 0.92,0.92 z"
             inkscape:connector-curvature="0"
             style="fill:#e5e5e5;fill-opacity:1" />
          <path
             id="path2495"
             d="M 20.71,5.63 18.37,3.29 C 18.17,3.09 17.92,3 17.66,3 17.4,3 17.15,3.1 16.96,3.29 l -1.83,1.83 3.75,3.75 1.83,-1.83 c 0.39,-0.39 0.39,-1.02 0,-1.41 z"
             inkscape:connector-curvature="0"
             style="fill:#e5e5e5;fill-opacity:1" />
        </g>
      </g>
    </g>
    <g
       id="g2699"
       transform="matrix(0.33072917,0,0,0.33074803,165.36489,267.63219)">
      <g
         id="Bounding_Boxes-64">
        <path
           id="path2679"
           d="M 0,0 H 24 V 24 H 0 Z"
           inkscape:connector-curvature="0"
           style="fill:none" />
      </g>
      <g
         id="Outline-95"
         style="fill:#e5e5e5;fill-opacity:1">
        <g
           display="none"
           id="ui_x5F_spec_x5F_header-0"
           style="display:none;fill:#e5e5e5;fill-opacity:1" />
        <path
           id="path2683"
           d="M 22,11 H 17.83 L 21.07,7.76 19.66,6.34 15,11 H 13 V 9 L 17.66,4.34 16.24,2.93 13,6.17 V 2 H 11 V 6.17 L 7.76,2.93 6.34,4.34 11,9 v 2 H 9 L 4.34,6.34 2.93,7.76 6.17,11 H 2 v 2 H 6.17 L 2.93,16.24 4.34,17.66 9,13 h 2 v 2 L 6.34,19.66 7.76,21.07 11,17.83 V 22 h 2 v -4.17 l 3.24,3.24 1.42,-1.41 L 13,15 v -2 h 2 l 4.66,4.66 1.41,-1.42 L 17.83,13 H 22 Z"
           inkscape:connector-curvature="0"
           style="fill:#e5e5e5;fill-opacity:1" />
      </g>
    </g>
    <g
       id="g2730"
       transform="matrix(0.33072917,0,0,0.33074803,133.6149,278.21615)">
      <g
         id="Bounding_Boxes-48">
        <path
           id="path2701"
           d="M 0,0 H 24 V 24 H 0 Z"
           inkscape:connector-curvature="0"
           style="fill:none" />
      </g>
      <g
         id="Outline-71"
         style="fill:#e5e5e5;fill-opacity:1">
        <g
           display="none"
           id="ui_x5F_spec_x5F_header-7"
           style="display:none;fill:#e5e5e5;fill-opacity:1" />
        <g
           id="g2711"
           style="fill:#e5e5e5;fill-opacity:1">
          <rect
             id="rect2705"
             height="3"
             width="2"
             y="5"
             x="8"
             style="fill:#e5e5e5;fill-opacity:1" />
          <rect
             id="rect2707"
             height="5"
             width="2"
             y="12"
             x="8"
             style="fill:#e5e5e5;fill-opacity:1" />
          <path
             id="path2709"
             d="M 18,2.01 6,2 C 4.9,2 4,2.89 4,4 v 16 c 0,1.1 0.9,2 2,2 h 12 c 1.1,0 2,-0.9 2,-2 V 4 C 20,2.89 19.1,2.01 18,2.01 Z M 18,20 H 6 V 10.98 H 18 Z M 18,9 H 6 V 4 h 12 z"
             inkscape:connector-curvature="0"
             style="fill:#e5e5e5;fill-opacity:1" />
        </g>
      </g>
    </g>
    <g
       id="g2752"
       transform="matrix(0.33072917,0,0,0.33074803,144.19823,278.21615)">
      <g
         id="Bounding_Boxes-2">
        <path
           id="path2732"
           d="M 0,0 H 24 V 24 H 0 Z"
           inkscape:connector-curvature="0"
           style="fill:none" />
      </g>
      <g
         id="Outline-72"
         style="fill:#e5e5e5;fill-opacity:1">
        <g
           display="none"
           id="ui_x5F_spec_x5F_header-26"
           style="display:none;fill:#e5e5e5;fill-opacity:1" />
        <path
           id="path2736"
           d="M 20,7 H 16 V 5 L 14,3 H 10 L 8,5 V 7 H 4 C 2.9,7 2,7.9 2,9 v 5 c 0,0.75 0.4,1.38 1,1.73 V 19 c 0,1.11 0.89,2 2,2 h 14 c 1.11,0 2,-0.89 2,-2 V 15.72 C 21.59,15.37 22,14.73 22,14 V 9 C 22,7.9 21.1,7 20,7 Z M 10,5 h 4 V 7 H 10 Z M 4,9 h 16 v 5 H 15 V 11 H 9 v 3 H 4 Z m 9,6 h -2 v -2 h 2 z m 6,4 H 5 v -3 h 4 v 1 h 6 v -1 h 4 z"
           inkscape:connector-curvature="0"
           style="fill:#e5e5e5;fill-opacity:1" />
      </g>
    </g>
    <g
       id="g2776"
       transform="matrix(0.33072917,0,0,0.33074803,133.6149,268.19105)">
      <g
         id="Bounding_Boxes-1">
        <g
           id="ui_x5F_spec_x5F_header_copy_3-06" />
        <path
           id="path2755"
           d="M 0,0 H 24 V 24 H 0 Z"
           inkscape:connector-curvature="0"
           style="fill:none" />
      </g>
      <g
         id="Outline-1"
         style="fill:#e5e5e5;fill-opacity:1">
        <g
           id="ui_x5F_spec_x5F_header-59"
           style="fill:#e5e5e5;fill-opacity:1" />
        <path
           id="path2759"
           d="M 20,17.17 18.83,16 H 4 V 4 H 20 Z M 20,2 H 4 C 2.9,2 2,2.9 2,4 v 12 c 0,1.1 0.9,2 2,2 h 14 l 4,4 V 4 C 22,2.9 21.1,2 20,2 Z"
           inkscape:connector-curvature="0"
           style="fill:#e5e5e5;fill-opacity:1" />
      </g>
    </g>
    <g
       id="g2798"
       transform="matrix(0.33072917,0,0,0.33074803,154.78156,257.04825)">
      <g
         id="Bounding_Boxes-49">
        <path
           id="path2778"
           d="M 0,0 H 24 V 24 H 0 Z"
           inkscape:connector-curvature="0"
           style="fill:none" />
      </g>
      <g
         id="Outline-09"
         style="fill:#e5e5e5;fill-opacity:1">
        <g
           id="ui_x5F_spec_x5F_header-17"
           style="fill:#e5e5e5;fill-opacity:1" />
        <path
           id="path2782"
           d="m 12,6 c 2.62,0 4.88,1.86 5.39,4.43 l 0.3,1.5 1.53,0.11 c 1.56,0.1 2.78,1.41 2.78,2.96 0,1.65 -1.35,3 -3,3 H 6 C 3.79,18 2,16.21 2,14 2,11.95 3.53,10.24 5.56,10.03 L 6.63,9.92 7.13,8.97 C 8.08,7.14 9.94,6 12,6 M 12,4 C 9.11,4 6.6,5.64 5.35,8.04 2.34,8.36 0,10.91 0,14 c 0,3.31 2.69,6 6,6 h 13 c 2.76,0 5,-2.24 5,-5 0,-2.64 -2.05,-4.78 -4.65,-4.96 C 18.67,6.59 15.64,4 12,4 Z"
           inkscape:connector-curvature="0"
           style="fill:#e5e5e5;fill-opacity:1" />
      </g>
    </g>
    <rect
       style="fill:#000000;fill-opacity:1;stroke:none;stroke-width:0.48791537;stroke-miterlimit:4;stroke-dasharray:none;stroke-opacity:1"
       id="rect3068"
       width="3.175"
       height="28.0543"
       x="107.95033"
       y="261.00821" />
  </g>
</svg>
